<svg width="900" height="900" viewBox="0 0 900 900" xmlns="http://www.w3.org/2000/svg">
  <defs>
    <clipPath id="rounded"><rect x="0" y="0" width="900" height="900" rx="18"/></clipPath>
    <linearGradient id="headerGrad" x1="0" y1="0" x2="1" y2="0">
      <stop offset="0%" stop-color="#a371f7"/>
      <stop offset="100%" stop-color="#58a6ff"/>
    </linearGradient>
  </defs>
  <g clip-path="url(#rounded)">
    <rect width="900" height="900" fill="#0d1117"/>
    <rect width="900" height="6" fill="url(#headerGrad)"/>
    <text x="40" y="55" fill="#c9d1d9" font-size="26" font-weight="700" font-family="'Segoe UI', sans-serif">Aryan Arkhit Behra</text>
    <text x="40" y="80" fill="#6e7681" font-size="14" font-family="'Segoe UI', sans-serif">@notarkhit · on GitHub since 2021</text>
    <line x1="40" y1="100" x2="860" y2="100" stroke="#30363d" stroke-width="1"/>

    
        <g transform="translate(40, 130)">
          <text x="0" y="0" fill="#8b949e" font-size="13" font-family="'Segoe UI', sans-serif">Total Stars</text>
          <text x="0" y="30" fill="#a371f7" font-size="26" font-weight="700" font-family="'Segoe UI', sans-serif">47</text>
        </g>
        <g transform="translate(310, 130)">
          <text x="0" y="0" fill="#8b949e" font-size="13" font-family="'Segoe UI', sans-serif">Public Repos</text>
          <text x="0" y="30" fill="#58a6ff" font-size="26" font-weight="700" font-family="'Segoe UI', sans-serif">26</text>
        </g>
        <g transform="translate(580, 130)">
          <text x="0" y="0" fill="#8b949e" font-size="13" font-family="'Segoe UI', sans-serif">Followers</text>
          <text x="0" y="30" fill="#3fb950" font-size="26" font-weight="700" font-family="'Segoe UI', sans-serif">22</text>
        </g>
        <g transform="translate(40, 220)">
          <text x="0" y="0" fill="#8b949e" font-size="13" font-family="'Segoe UI', sans-serif">Contributions (yr)</text>
          <text x="0" y="30" fill="#d29922" font-size="26" font-weight="700" font-family="'Segoe UI', sans-serif">320</text>
        </g>
        <g transform="translate(310, 220)">
          <text x="0" y="0" fill="#8b949e" font-size="13" font-family="'Segoe UI', sans-serif">Current Streak</text>
          <text x="0" y="30" fill="#db6d28" font-size="26" font-weight="700" font-family="'Segoe UI', sans-serif">2d</text>
        </g>
        <g transform="translate(580, 220)">
          <text x="0" y="0" fill="#8b949e" font-size="13" font-family="'Segoe UI', sans-serif">Longest Streak</text>
          <text x="0" y="30" fill="#db61a2" font-size="26" font-weight="700" font-family="'Segoe UI', sans-serif">7d</text>
        </g>
        <g transform="translate(40, 310)">
          <text x="0" y="0" fill="#8b949e" font-size="13" font-family="'Segoe UI', sans-serif">Pull Requests</text>
          <text x="0" y="30" fill="#a371f7" font-size="26" font-weight="700" font-family="'Segoe UI', sans-serif">4</text>
        </g>
        <g transform="translate(310, 310)">
          <text x="0" y="0" fill="#8b949e" font-size="13" font-family="'Segoe UI', sans-serif">Issues Opened</text>
          <text x="0" y="30" fill="#58a6ff" font-size="26" font-weight="700" font-family="'Segoe UI', sans-serif">1</text>
        </g>
        <g transform="translate(580, 310)">
          <text x="0" y="0" fill="#8b949e" font-size="13" font-family="'Segoe UI', sans-serif">Code Reviews</text>
          <text x="0" y="30" fill="#3fb950" font-size="26" font-weight="700" font-family="'Segoe UI', sans-serif">0</text>
        </g>
        <g transform="translate(40, 400)">
          <text x="0" y="0" fill="#8b949e" font-size="13" font-family="'Segoe UI', sans-serif">Account Age</text>
          <text x="0" y="30" fill="#d29922" font-size="26" font-weight="700" font-family="'Segoe UI', sans-serif">4y</text>
        </g>

    <text x="40" y="470" fill="#8b949e" font-size="13" font-weight="600" font-family="'Segoe UI', sans-serif" letter-spacing="1">TOP LANGUAGES</text>
    <rect x="40" y="500" width="820" height="14" rx="7" fill="#161b22"/>
    <rect x="40" y="500" width="195.29" height="14" fill="#f34b7d" rx="2"/><rect x="235.29345495202259" y="500" width="174.23" height="14" fill="#A97BFF" rx="2"/><rect x="409.5216288124237" y="500" width="113.53" height="14" fill="#44a51c" rx="2"/><rect x="523.0500191188108" y="500" width="78.08" height="14" fill="#3572A5" rx="2"/><rect x="601.1264713090046" y="500" width="54.40" height="14" fill="#000080" rx="2"/><rect x="655.5281627850219" y="500" width="46.42" height="14" fill="#3178c6" rx="2"/>
    
        <g transform="translate(40, 540)">
          <rect x="0" y="-10" width="10" height="10" rx="2" fill="#f34b7d"/>
          <text x="16" y="-1" fill="#c9d1d9" font-size="13" font-family="'Segoe UI', sans-serif">C++ 23.8%</text>
        </g>
        <g transform="translate(310, 540)">
          <rect x="0" y="-10" width="10" height="10" rx="2" fill="#A97BFF"/>
          <text x="16" y="-1" fill="#c9d1d9" font-size="13" font-family="'Segoe UI', sans-serif">Kotlin 21.2%</text>
        </g>
        <g transform="translate(580, 540)">
          <rect x="0" y="-10" width="10" height="10" rx="2" fill="#44a51c"/>
          <text x="16" y="-1" fill="#c9d1d9" font-size="13" font-family="'Segoe UI', sans-serif">QML 13.8%</text>
        </g>
        <g transform="translate(40, 566)">
          <rect x="0" y="-10" width="10" height="10" rx="2" fill="#3572A5"/>
          <text x="16" y="-1" fill="#c9d1d9" font-size="13" font-family="'Segoe UI', sans-serif">Python 9.5%</text>
        </g>
        <g transform="translate(310, 566)">
          <rect x="0" y="-10" width="10" height="10" rx="2" fill="#000080"/>
          <text x="16" y="-1" fill="#c9d1d9" font-size="13" font-family="'Segoe UI', sans-serif">Lua 6.6%</text>
        </g>
        <g transform="translate(580, 566)">
          <rect x="0" y="-10" width="10" height="10" rx="2" fill="#3178c6"/>
          <text x="16" y="-1" fill="#c9d1d9" font-size="13" font-family="'Segoe UI', sans-serif">TypeScript 5.7%</text>
        </g>

    
    <text x="40" y="650" fill="#8b949e" font-size="13" font-weight="600" font-family="'Segoe UI', sans-serif" letter-spacing="1">CONTRIBUTION ACTIVITY (52 WEEKS)</text>
    <rect x="40" y="660" width="10" height="10" rx="2" fill="#161b22"><title>2025-07-13: 0</title></rect><rect x="40" y="673" width="10" height="10" rx="2" fill="#161b22"><title>2025-07-14: 0</title></rect><rect x="40" y="686" width="10" height="10" rx="2" fill="#161b22"><title>2025-07-15: 0</title></rect><rect x="40" y="699" width="10" height="10" rx="2" fill="#161b22"><title>2025-07-16: 0</title></rect><rect x="40" y="712" width="10" height="10" rx="2" fill="#161b22"><title>2025-07-17: 0</title></rect><rect x="40" y="725" width="10" height="10" rx="2" fill="#161b22"><title>2025-07-18: 0</title></rect><rect x="40" y="738" width="10" height="10" rx="2" fill="#161b22"><title>2025-07-19: 0</title></rect><rect x="53" y="660" width="10" height="10" rx="2" fill="#161b22"><title>2025-07-20: 0</title></rect><rect x="53" y="673" width="10" height="10" rx="2" fill="#006d32"><title>2025-07-21: 3</title></rect><rect x="53" y="686" width="10" height="10" rx="2" fill="#161b22"><title>2025-07-22: 0</title></rect><rect x="53" y="699" width="10" height="10" rx="2" fill="#161b22"><title>2025-07-23: 0</title></rect><rect x="53" y="712" width="10" height="10" rx="2" fill="#0e4429"><title>2025-07-24: 1</title></rect><rect x="53" y="725" width="10" height="10" rx="2" fill="#161b22"><title>2025-07-25: 0</title></rect><rect x="53" y="738" width="10" height="10" rx="2" fill="#161b22"><title>2025-07-26: 0</title></rect><rect x="66" y="660" width="10" height="10" rx="2" fill="#161b22"><title>2025-07-27: 0</title></rect><rect x="66" y="673" width="10" height="10" rx="2" fill="#161b22"><title>2025-07-28: 0</title></rect><rect x="66" y="686" width="10" height="10" rx="2" fill="#161b22"><title>2025-07-29: 0</title></rect><rect x="66" y="699" width="10" height="10" rx="2" fill="#161b22"><title>2025-07-30: 0</title></rect><rect x="66" y="712" width="10" height="10" rx="2" fill="#161b22"><title>2025-07-31: 0</title></rect><rect x="66" y="725" width="10" height="10" rx="2" fill="#161b22"><title>2025-08-01: 0</title></rect><rect x="66" y="738" width="10" height="10" rx="2" fill="#161b22"><title>2025-08-02: 0</title></rect><rect x="79" y="660" width="10" height="10" rx="2" fill="#161b22"><title>2025-08-03: 0</title></rect><rect x="79" y="673" width="10" height="10" rx="2" fill="#161b22"><title>2025-08-04: 0</title></rect><rect x="79" y="686" width="10" height="10" rx="2" fill="#0e4429"><title>2025-08-05: 2</title></rect><rect x="79" y="699" width="10" height="10" rx="2" fill="#26a641"><title>2025-08-06: 7</title></rect><rect x="79" y="712" width="10" height="10" rx="2" fill="#161b22"><title>2025-08-07: 0</title></rect><rect x="79" y="725" width="10" height="10" rx="2" fill="#0e4429"><title>2025-08-08: 1</title></rect><rect x="79" y="738" width="10" height="10" rx="2" fill="#006d32"><title>2025-08-09: 5</title></rect><rect x="92" y="660" width="10" height="10" rx="2" fill="#0e4429"><title>2025-08-10: 1</title></rect><rect x="92" y="673" width="10" height="10" rx="2" fill="#006d32"><title>2025-08-11: 3</title></rect><rect x="92" y="686" width="10" height="10" rx="2" fill="#0e4429"><title>2025-08-12: 2</title></rect><rect x="92" y="699" width="10" height="10" rx="2" fill="#0e4429"><title>2025-08-13: 2</title></rect><rect x="92" y="712" width="10" height="10" rx="2" fill="#161b22"><title>2025-08-14: 0</title></rect><rect x="92" y="725" width="10" height="10" rx="2" fill="#0e4429"><title>2025-08-15: 2</title></rect><rect x="92" y="738" width="10" height="10" rx="2" fill="#161b22"><title>2025-08-16: 0</title></rect><rect x="105" y="660" width="10" height="10" rx="2" fill="#0e4429"><title>2025-08-17: 1</title></rect><rect x="105" y="673" width="10" height="10" rx="2" fill="#161b22"><title>2025-08-18: 0</title></rect><rect x="105" y="686" width="10" height="10" rx="2" fill="#006d32"><title>2025-08-19: 4</title></rect><rect x="105" y="699" width="10" height="10" rx="2" fill="#161b22"><title>2025-08-20: 0</title></rect><rect x="105" y="712" width="10" height="10" rx="2" fill="#161b22"><title>2025-08-21: 0</title></rect><rect x="105" y="725" width="10" height="10" rx="2" fill="#161b22"><title>2025-08-22: 0</title></rect><rect x="105" y="738" width="10" height="10" rx="2" fill="#161b22"><title>2025-08-23: 0</title></rect><rect x="118" y="660" width="10" height="10" rx="2" fill="#161b22"><title>2025-08-24: 0</title></rect><rect x="118" y="673" width="10" height="10" rx="2" fill="#161b22"><title>2025-08-25: 0</title></rect><rect x="118" y="686" width="10" height="10" rx="2" fill="#161b22"><title>2025-08-26: 0</title></rect><rect x="118" y="699" width="10" height="10" rx="2" fill="#161b22"><title>2025-08-27: 0</title></rect><rect x="118" y="712" width="10" height="10" rx="2" fill="#006d32"><title>2025-08-28: 4</title></rect><rect x="118" y="725" width="10" height="10" rx="2" fill="#0e4429"><title>2025-08-29: 2</title></rect><rect x="118" y="738" width="10" height="10" rx="2" fill="#0e4429"><title>2025-08-30: 1</title></rect><rect x="131" y="660" width="10" height="10" rx="2" fill="#39d353"><title>2025-08-31: 12</title></rect><rect x="131" y="673" width="10" height="10" rx="2" fill="#0e4429"><title>2025-09-01: 1</title></rect><rect x="131" y="686" width="10" height="10" rx="2" fill="#006d32"><title>2025-09-02: 3</title></rect><rect x="131" y="699" width="10" height="10" rx="2" fill="#0e4429"><title>2025-09-03: 2</title></rect><rect x="131" y="712" width="10" height="10" rx="2" fill="#161b22"><title>2025-09-04: 0</title></rect><rect x="131" y="725" width="10" height="10" rx="2" fill="#161b22"><title>2025-09-05: 0</title></rect><rect x="131" y="738" width="10" height="10" rx="2" fill="#0e4429"><title>2025-09-06: 1</title></rect><rect x="144" y="660" width="10" height="10" rx="2" fill="#161b22"><title>2025-09-07: 0</title></rect><rect x="144" y="673" width="10" height="10" rx="2" fill="#0e4429"><title>2025-09-08: 1</title></rect><rect x="144" y="686" width="10" height="10" rx="2" fill="#0e4429"><title>2025-09-09: 1</title></rect><rect x="144" y="699" width="10" height="10" rx="2" fill="#26a641"><title>2025-09-10: 7</title></rect><rect x="144" y="712" width="10" height="10" rx="2" fill="#26a641"><title>2025-09-11: 9</title></rect><rect x="144" y="725" width="10" height="10" rx="2" fill="#26a641"><title>2025-09-12: 6</title></rect><rect x="144" y="738" width="10" height="10" rx="2" fill="#161b22"><title>2025-09-13: 0</title></rect><rect x="157" y="660" width="10" height="10" rx="2" fill="#161b22"><title>2025-09-14: 0</title></rect><rect x="157" y="673" width="10" height="10" rx="2" fill="#0e4429"><title>2025-09-15: 1</title></rect><rect x="157" y="686" width="10" height="10" rx="2" fill="#161b22"><title>2025-09-16: 0</title></rect><rect x="157" y="699" width="10" height="10" rx="2" fill="#161b22"><title>2025-09-17: 0</title></rect><rect x="157" y="712" width="10" height="10" rx="2" fill="#0e4429"><title>2025-09-18: 1</title></rect><rect x="157" y="725" width="10" height="10" rx="2" fill="#161b22"><title>2025-09-19: 0</title></rect><rect x="157" y="738" width="10" height="10" rx="2" fill="#161b22"><title>2025-09-20: 0</title></rect><rect x="170" y="660" width="10" height="10" rx="2" fill="#0e4429"><title>2025-09-21: 1</title></rect><rect x="170" y="673" width="10" height="10" rx="2" fill="#161b22"><title>2025-09-22: 0</title></rect><rect x="170" y="686" width="10" height="10" rx="2" fill="#161b22"><title>2025-09-23: 0</title></rect><rect x="170" y="699" width="10" height="10" rx="2" fill="#161b22"><title>2025-09-24: 0</title></rect><rect x="170" y="712" width="10" height="10" rx="2" fill="#161b22"><title>2025-09-25: 0</title></rect><rect x="170" y="725" width="10" height="10" rx="2" fill="#161b22"><title>2025-09-26: 0</title></rect><rect x="170" y="738" width="10" height="10" rx="2" fill="#161b22"><title>2025-09-27: 0</title></rect><rect x="183" y="660" width="10" height="10" rx="2" fill="#161b22"><title>2025-09-28: 0</title></rect><rect x="183" y="673" width="10" height="10" rx="2" fill="#161b22"><title>2025-09-29: 0</title></rect><rect x="183" y="686" width="10" height="10" rx="2" fill="#161b22"><title>2025-09-30: 0</title></rect><rect x="183" y="699" width="10" height="10" rx="2" fill="#161b22"><title>2025-10-01: 0</title></rect><rect x="183" y="712" width="10" height="10" rx="2" fill="#26a641"><title>2025-10-02: 6</title></rect><rect x="183" y="725" width="10" height="10" rx="2" fill="#161b22"><title>2025-10-03: 0</title></rect><rect x="183" y="738" width="10" height="10" rx="2" fill="#161b22"><title>2025-10-04: 0</title></rect><rect x="196" y="660" width="10" height="10" rx="2" fill="#161b22"><title>2025-10-05: 0</title></rect><rect x="196" y="673" width="10" height="10" rx="2" fill="#161b22"><title>2025-10-06: 0</title></rect><rect x="196" y="686" width="10" height="10" rx="2" fill="#161b22"><title>2025-10-07: 0</title></rect><rect x="196" y="699" width="10" height="10" rx="2" fill="#161b22"><title>2025-10-08: 0</title></rect><rect x="196" y="712" width="10" height="10" rx="2" fill="#161b22"><title>2025-10-09: 0</title></rect><rect x="196" y="725" width="10" height="10" rx="2" fill="#161b22"><title>2025-10-10: 0</title></rect><rect x="196" y="738" width="10" height="10" rx="2" fill="#161b22"><title>2025-10-11: 0</title></rect><rect x="209" y="660" width="10" height="10" rx="2" fill="#161b22"><title>2025-10-12: 0</title></rect><rect x="209" y="673" width="10" height="10" rx="2" fill="#161b22"><title>2025-10-13: 0</title></rect><rect x="209" y="686" width="10" height="10" rx="2" fill="#161b22"><title>2025-10-14: 0</title></rect><rect x="209" y="699" width="10" height="10" rx="2" fill="#161b22"><title>2025-10-15: 0</title></rect><rect x="209" y="712" width="10" height="10" rx="2" fill="#161b22"><title>2025-10-16: 0</title></rect><rect x="209" y="725" width="10" height="10" rx="2" fill="#161b22"><title>2025-10-17: 0</title></rect><rect x="209" y="738" width="10" height="10" rx="2" fill="#161b22"><title>2025-10-18: 0</title></rect><rect x="222" y="660" width="10" height="10" rx="2" fill="#161b22"><title>2025-10-19: 0</title></rect><rect x="222" y="673" width="10" height="10" rx="2" fill="#161b22"><title>2025-10-20: 0</title></rect><rect x="222" y="686" width="10" height="10" rx="2" fill="#161b22"><title>2025-10-21: 0</title></rect><rect x="222" y="699" width="10" height="10" rx="2" fill="#161b22"><title>2025-10-22: 0</title></rect><rect x="222" y="712" width="10" height="10" rx="2" fill="#161b22"><title>2025-10-23: 0</title></rect><rect x="222" y="725" width="10" height="10" rx="2" fill="#161b22"><title>2025-10-24: 0</title></rect><rect x="222" y="738" width="10" height="10" rx="2" fill="#161b22"><title>2025-10-25: 0</title></rect><rect x="235" y="660" width="10" height="10" rx="2" fill="#161b22"><title>2025-10-26: 0</title></rect><rect x="235" y="673" width="10" height="10" rx="2" fill="#161b22"><title>2025-10-27: 0</title></rect><rect x="235" y="686" width="10" height="10" rx="2" fill="#161b22"><title>2025-10-28: 0</title></rect><rect x="235" y="699" width="10" height="10" rx="2" fill="#161b22"><title>2025-10-29: 0</title></rect><rect x="235" y="712" width="10" height="10" rx="2" fill="#161b22"><title>2025-10-30: 0</title></rect><rect x="235" y="725" width="10" height="10" rx="2" fill="#161b22"><title>2025-10-31: 0</title></rect><rect x="235" y="738" width="10" height="10" rx="2" fill="#161b22"><title>2025-11-01: 0</title></rect><rect x="248" y="660" width="10" height="10" rx="2" fill="#161b22"><title>2025-11-02: 0</title></rect><rect x="248" y="673" width="10" height="10" rx="2" fill="#161b22"><title>2025-11-03: 0</title></rect><rect x="248" y="686" width="10" height="10" rx="2" fill="#161b22"><title>2025-11-04: 0</title></rect><rect x="248" y="699" width="10" height="10" rx="2" fill="#161b22"><title>2025-11-05: 0</title></rect><rect x="248" y="712" width="10" height="10" rx="2" fill="#161b22"><title>2025-11-06: 0</title></rect><rect x="248" y="725" width="10" height="10" rx="2" fill="#161b22"><title>2025-11-07: 0</title></rect><rect x="248" y="738" width="10" height="10" rx="2" fill="#161b22"><title>2025-11-08: 0</title></rect><rect x="261" y="660" width="10" height="10" rx="2" fill="#161b22"><title>2025-11-09: 0</title></rect><rect x="261" y="673" width="10" height="10" rx="2" fill="#161b22"><title>2025-11-10: 0</title></rect><rect x="261" y="686" width="10" height="10" rx="2" fill="#161b22"><title>2025-11-11: 0</title></rect><rect x="261" y="699" width="10" height="10" rx="2" fill="#0e4429"><title>2025-11-12: 1</title></rect><rect x="261" y="712" width="10" height="10" rx="2" fill="#0e4429"><title>2025-11-13: 1</title></rect><rect x="261" y="725" width="10" height="10" rx="2" fill="#161b22"><title>2025-11-14: 0</title></rect><rect x="261" y="738" width="10" height="10" rx="2" fill="#161b22"><title>2025-11-15: 0</title></rect><rect x="274" y="660" width="10" height="10" rx="2" fill="#161b22"><title>2025-11-16: 0</title></rect><rect x="274" y="673" width="10" height="10" rx="2" fill="#161b22"><title>2025-11-17: 0</title></rect><rect x="274" y="686" width="10" height="10" rx="2" fill="#161b22"><title>2025-11-18: 0</title></rect><rect x="274" y="699" width="10" height="10" rx="2" fill="#161b22"><title>2025-11-19: 0</title></rect><rect x="274" y="712" width="10" height="10" rx="2" fill="#161b22"><title>2025-11-20: 0</title></rect><rect x="274" y="725" width="10" height="10" rx="2" fill="#161b22"><title>2025-11-21: 0</title></rect><rect x="274" y="738" width="10" height="10" rx="2" fill="#161b22"><title>2025-11-22: 0</title></rect><rect x="287" y="660" width="10" height="10" rx="2" fill="#161b22"><title>2025-11-23: 0</title></rect><rect x="287" y="673" width="10" height="10" rx="2" fill="#161b22"><title>2025-11-24: 0</title></rect><rect x="287" y="686" width="10" height="10" rx="2" fill="#161b22"><title>2025-11-25: 0</title></rect><rect x="287" y="699" width="10" height="10" rx="2" fill="#161b22"><title>2025-11-26: 0</title></rect><rect x="287" y="712" width="10" height="10" rx="2" fill="#161b22"><title>2025-11-27: 0</title></rect><rect x="287" y="725" width="10" height="10" rx="2" fill="#006d32"><title>2025-11-28: 3</title></rect><rect x="287" y="738" width="10" height="10" rx="2" fill="#161b22"><title>2025-11-29: 0</title></rect><rect x="300" y="660" width="10" height="10" rx="2" fill="#161b22"><title>2025-11-30: 0</title></rect><rect x="300" y="673" width="10" height="10" rx="2" fill="#161b22"><title>2025-12-01: 0</title></rect><rect x="300" y="686" width="10" height="10" rx="2" fill="#0e4429"><title>2025-12-02: 1</title></rect><rect x="300" y="699" width="10" height="10" rx="2" fill="#0e4429"><title>2025-12-03: 1</title></rect><rect x="300" y="712" width="10" height="10" rx="2" fill="#161b22"><title>2025-12-04: 0</title></rect><rect x="300" y="725" width="10" height="10" rx="2" fill="#161b22"><title>2025-12-05: 0</title></rect><rect x="300" y="738" width="10" height="10" rx="2" fill="#161b22"><title>2025-12-06: 0</title></rect><rect x="313" y="660" width="10" height="10" rx="2" fill="#161b22"><title>2025-12-07: 0</title></rect><rect x="313" y="673" width="10" height="10" rx="2" fill="#161b22"><title>2025-12-08: 0</title></rect><rect x="313" y="686" width="10" height="10" rx="2" fill="#161b22"><title>2025-12-09: 0</title></rect><rect x="313" y="699" width="10" height="10" rx="2" fill="#161b22"><title>2025-12-10: 0</title></rect><rect x="313" y="712" width="10" height="10" rx="2" fill="#161b22"><title>2025-12-11: 0</title></rect><rect x="313" y="725" width="10" height="10" rx="2" fill="#161b22"><title>2025-12-12: 0</title></rect><rect x="313" y="738" width="10" height="10" rx="2" fill="#161b22"><title>2025-12-13: 0</title></rect><rect x="326" y="660" width="10" height="10" rx="2" fill="#161b22"><title>2025-12-14: 0</title></rect><rect x="326" y="673" width="10" height="10" rx="2" fill="#0e4429"><title>2025-12-15: 1</title></rect><rect x="326" y="686" width="10" height="10" rx="2" fill="#161b22"><title>2025-12-16: 0</title></rect><rect x="326" y="699" width="10" height="10" rx="2" fill="#161b22"><title>2025-12-17: 0</title></rect><rect x="326" y="712" width="10" height="10" rx="2" fill="#161b22"><title>2025-12-18: 0</title></rect><rect x="326" y="725" width="10" height="10" rx="2" fill="#161b22"><title>2025-12-19: 0</title></rect><rect x="326" y="738" width="10" height="10" rx="2" fill="#161b22"><title>2025-12-20: 0</title></rect><rect x="339" y="660" width="10" height="10" rx="2" fill="#161b22"><title>2025-12-21: 0</title></rect><rect x="339" y="673" width="10" height="10" rx="2" fill="#161b22"><title>2025-12-22: 0</title></rect><rect x="339" y="686" width="10" height="10" rx="2" fill="#0e4429"><title>2025-12-23: 2</title></rect><rect x="339" y="699" width="10" height="10" rx="2" fill="#161b22"><title>2025-12-24: 0</title></rect><rect x="339" y="712" width="10" height="10" rx="2" fill="#161b22"><title>2025-12-25: 0</title></rect><rect x="339" y="725" width="10" height="10" rx="2" fill="#161b22"><title>2025-12-26: 0</title></rect><rect x="339" y="738" width="10" height="10" rx="2" fill="#161b22"><title>2025-12-27: 0</title></rect><rect x="352" y="660" width="10" height="10" rx="2" fill="#0e4429"><title>2025-12-28: 1</title></rect><rect x="352" y="673" width="10" height="10" rx="2" fill="#161b22"><title>2025-12-29: 0</title></rect><rect x="352" y="686" width="10" height="10" rx="2" fill="#161b22"><title>2025-12-30: 0</title></rect><rect x="352" y="699" width="10" height="10" rx="2" fill="#161b22"><title>2025-12-31: 0</title></rect><rect x="352" y="712" width="10" height="10" rx="2" fill="#161b22"><title>2026-01-01: 0</title></rect><rect x="352" y="725" width="10" height="10" rx="2" fill="#161b22"><title>2026-01-02: 0</title></rect><rect x="352" y="738" width="10" height="10" rx="2" fill="#161b22"><title>2026-01-03: 0</title></rect><rect x="365" y="660" width="10" height="10" rx="2" fill="#161b22"><title>2026-01-04: 0</title></rect><rect x="365" y="673" width="10" height="10" rx="2" fill="#161b22"><title>2026-01-05: 0</title></rect><rect x="365" y="686" width="10" height="10" rx="2" fill="#006d32"><title>2026-01-06: 3</title></rect><rect x="365" y="699" width="10" height="10" rx="2" fill="#161b22"><title>2026-01-07: 0</title></rect><rect x="365" y="712" width="10" height="10" rx="2" fill="#006d32"><title>2026-01-08: 4</title></rect><rect x="365" y="725" width="10" height="10" rx="2" fill="#006d32"><title>2026-01-09: 5</title></rect><rect x="365" y="738" width="10" height="10" rx="2" fill="#006d32"><title>2026-01-10: 3</title></rect><rect x="378" y="660" width="10" height="10" rx="2" fill="#161b22"><title>2026-01-11: 0</title></rect><rect x="378" y="673" width="10" height="10" rx="2" fill="#006d32"><title>2026-01-12: 3</title></rect><rect x="378" y="686" width="10" height="10" rx="2" fill="#161b22"><title>2026-01-13: 0</title></rect><rect x="378" y="699" width="10" height="10" rx="2" fill="#161b22"><title>2026-01-14: 0</title></rect><rect x="378" y="712" width="10" height="10" rx="2" fill="#161b22"><title>2026-01-15: 0</title></rect><rect x="378" y="725" width="10" height="10" rx="2" fill="#161b22"><title>2026-01-16: 0</title></rect><rect x="378" y="738" width="10" height="10" rx="2" fill="#161b22"><title>2026-01-17: 0</title></rect><rect x="391" y="660" width="10" height="10" rx="2" fill="#161b22"><title>2026-01-18: 0</title></rect><rect x="391" y="673" width="10" height="10" rx="2" fill="#161b22"><title>2026-01-19: 0</title></rect><rect x="391" y="686" width="10" height="10" rx="2" fill="#161b22"><title>2026-01-20: 0</title></rect><rect x="391" y="699" width="10" height="10" rx="2" fill="#161b22"><title>2026-01-21: 0</title></rect><rect x="391" y="712" width="10" height="10" rx="2" fill="#161b22"><title>2026-01-22: 0</title></rect><rect x="391" y="725" width="10" height="10" rx="2" fill="#161b22"><title>2026-01-23: 0</title></rect><rect x="391" y="738" width="10" height="10" rx="2" fill="#161b22"><title>2026-01-24: 0</title></rect><rect x="404" y="660" width="10" height="10" rx="2" fill="#161b22"><title>2026-01-25: 0</title></rect><rect x="404" y="673" width="10" height="10" rx="2" fill="#161b22"><title>2026-01-26: 0</title></rect><rect x="404" y="686" width="10" height="10" rx="2" fill="#161b22"><title>2026-01-27: 0</title></rect><rect x="404" y="699" width="10" height="10" rx="2" fill="#161b22"><title>2026-01-28: 0</title></rect><rect x="404" y="712" width="10" height="10" rx="2" fill="#161b22"><title>2026-01-29: 0</title></rect><rect x="404" y="725" width="10" height="10" rx="2" fill="#161b22"><title>2026-01-30: 0</title></rect><rect x="404" y="738" width="10" height="10" rx="2" fill="#161b22"><title>2026-01-31: 0</title></rect><rect x="417" y="660" width="10" height="10" rx="2" fill="#161b22"><title>2026-02-01: 0</title></rect><rect x="417" y="673" width="10" height="10" rx="2" fill="#161b22"><title>2026-02-02: 0</title></rect><rect x="417" y="686" width="10" height="10" rx="2" fill="#161b22"><title>2026-02-03: 0</title></rect><rect x="417" y="699" width="10" height="10" rx="2" fill="#161b22"><title>2026-02-04: 0</title></rect><rect x="417" y="712" width="10" height="10" rx="2" fill="#0e4429"><title>2026-02-05: 1</title></rect><rect x="417" y="725" width="10" height="10" rx="2" fill="#0e4429"><title>2026-02-06: 2</title></rect><rect x="417" y="738" width="10" height="10" rx="2" fill="#161b22"><title>2026-02-07: 0</title></rect><rect x="430" y="660" width="10" height="10" rx="2" fill="#161b22"><title>2026-02-08: 0</title></rect><rect x="430" y="673" width="10" height="10" rx="2" fill="#161b22"><title>2026-02-09: 0</title></rect><rect x="430" y="686" width="10" height="10" rx="2" fill="#0e4429"><title>2026-02-10: 1</title></rect><rect x="430" y="699" width="10" height="10" rx="2" fill="#161b22"><title>2026-02-11: 0</title></rect><rect x="430" y="712" width="10" height="10" rx="2" fill="#006d32"><title>2026-02-12: 4</title></rect><rect x="430" y="725" width="10" height="10" rx="2" fill="#161b22"><title>2026-02-13: 0</title></rect><rect x="430" y="738" width="10" height="10" rx="2" fill="#161b22"><title>2026-02-14: 0</title></rect><rect x="443" y="660" width="10" height="10" rx="2" fill="#161b22"><title>2026-02-15: 0</title></rect><rect x="443" y="673" width="10" height="10" rx="2" fill="#161b22"><title>2026-02-16: 0</title></rect><rect x="443" y="686" width="10" height="10" rx="2" fill="#161b22"><title>2026-02-17: 0</title></rect><rect x="443" y="699" width="10" height="10" rx="2" fill="#161b22"><title>2026-02-18: 0</title></rect><rect x="443" y="712" width="10" height="10" rx="2" fill="#26a641"><title>2026-02-19: 9</title></rect><rect x="443" y="725" width="10" height="10" rx="2" fill="#161b22"><title>2026-02-20: 0</title></rect><rect x="443" y="738" width="10" height="10" rx="2" fill="#161b22"><title>2026-02-21: 0</title></rect><rect x="456" y="660" width="10" height="10" rx="2" fill="#0e4429"><title>2026-02-22: 1</title></rect><rect x="456" y="673" width="10" height="10" rx="2" fill="#26a641"><title>2026-02-23: 9</title></rect><rect x="456" y="686" width="10" height="10" rx="2" fill="#006d32"><title>2026-02-24: 5</title></rect><rect x="456" y="699" width="10" height="10" rx="2" fill="#0e4429"><title>2026-02-25: 2</title></rect><rect x="456" y="712" width="10" height="10" rx="2" fill="#161b22"><title>2026-02-26: 0</title></rect><rect x="456" y="725" width="10" height="10" rx="2" fill="#161b22"><title>2026-02-27: 0</title></rect><rect x="456" y="738" width="10" height="10" rx="2" fill="#161b22"><title>2026-02-28: 0</title></rect><rect x="469" y="660" width="10" height="10" rx="2" fill="#161b22"><title>2026-03-01: 0</title></rect><rect x="469" y="673" width="10" height="10" rx="2" fill="#26a641"><title>2026-03-02: 8</title></rect><rect x="469" y="686" width="10" height="10" rx="2" fill="#161b22"><title>2026-03-03: 0</title></rect><rect x="469" y="699" width="10" height="10" rx="2" fill="#161b22"><title>2026-03-04: 0</title></rect><rect x="469" y="712" width="10" height="10" rx="2" fill="#161b22"><title>2026-03-05: 0</title></rect><rect x="469" y="725" width="10" height="10" rx="2" fill="#161b22"><title>2026-03-06: 0</title></rect><rect x="469" y="738" width="10" height="10" rx="2" fill="#161b22"><title>2026-03-07: 0</title></rect><rect x="482" y="660" width="10" height="10" rx="2" fill="#161b22"><title>2026-03-08: 0</title></rect><rect x="482" y="673" width="10" height="10" rx="2" fill="#161b22"><title>2026-03-09: 0</title></rect><rect x="482" y="686" width="10" height="10" rx="2" fill="#161b22"><title>2026-03-10: 0</title></rect><rect x="482" y="699" width="10" height="10" rx="2" fill="#161b22"><title>2026-03-11: 0</title></rect><rect x="482" y="712" width="10" height="10" rx="2" fill="#161b22"><title>2026-03-12: 0</title></rect><rect x="482" y="725" width="10" height="10" rx="2" fill="#161b22"><title>2026-03-13: 0</title></rect><rect x="482" y="738" width="10" height="10" rx="2" fill="#161b22"><title>2026-03-14: 0</title></rect><rect x="495" y="660" width="10" height="10" rx="2" fill="#161b22"><title>2026-03-15: 0</title></rect><rect x="495" y="673" width="10" height="10" rx="2" fill="#161b22"><title>2026-03-16: 0</title></rect><rect x="495" y="686" width="10" height="10" rx="2" fill="#161b22"><title>2026-03-17: 0</title></rect><rect x="495" y="699" width="10" height="10" rx="2" fill="#161b22"><title>2026-03-18: 0</title></rect><rect x="495" y="712" width="10" height="10" rx="2" fill="#161b22"><title>2026-03-19: 0</title></rect><rect x="495" y="725" width="10" height="10" rx="2" fill="#161b22"><title>2026-03-20: 0</title></rect><rect x="495" y="738" width="10" height="10" rx="2" fill="#161b22"><title>2026-03-21: 0</title></rect><rect x="508" y="660" width="10" height="10" rx="2" fill="#161b22"><title>2026-03-22: 0</title></rect><rect x="508" y="673" width="10" height="10" rx="2" fill="#161b22"><title>2026-03-23: 0</title></rect><rect x="508" y="686" width="10" height="10" rx="2" fill="#161b22"><title>2026-03-24: 0</title></rect><rect x="508" y="699" width="10" height="10" rx="2" fill="#161b22"><title>2026-03-25: 0</title></rect><rect x="508" y="712" width="10" height="10" rx="2" fill="#161b22"><title>2026-03-26: 0</title></rect><rect x="508" y="725" width="10" height="10" rx="2" fill="#0e4429"><title>2026-03-27: 2</title></rect><rect x="508" y="738" width="10" height="10" rx="2" fill="#006d32"><title>2026-03-28: 4</title></rect><rect x="521" y="660" width="10" height="10" rx="2" fill="#0e4429"><title>2026-03-29: 1</title></rect><rect x="521" y="673" width="10" height="10" rx="2" fill="#161b22"><title>2026-03-30: 0</title></rect><rect x="521" y="686" width="10" height="10" rx="2" fill="#161b22"><title>2026-03-31: 0</title></rect><rect x="521" y="699" width="10" height="10" rx="2" fill="#161b22"><title>2026-04-01: 0</title></rect><rect x="521" y="712" width="10" height="10" rx="2" fill="#161b22"><title>2026-04-02: 0</title></rect><rect x="521" y="725" width="10" height="10" rx="2" fill="#161b22"><title>2026-04-03: 0</title></rect><rect x="521" y="738" width="10" height="10" rx="2" fill="#161b22"><title>2026-04-04: 0</title></rect><rect x="534" y="660" width="10" height="10" rx="2" fill="#161b22"><title>2026-04-05: 0</title></rect><rect x="534" y="673" width="10" height="10" rx="2" fill="#161b22"><title>2026-04-06: 0</title></rect><rect x="534" y="686" width="10" height="10" rx="2" fill="#006d32"><title>2026-04-07: 3</title></rect><rect x="534" y="699" width="10" height="10" rx="2" fill="#161b22"><title>2026-04-08: 0</title></rect><rect x="534" y="712" width="10" height="10" rx="2" fill="#0e4429"><title>2026-04-09: 1</title></rect><rect x="534" y="725" width="10" height="10" rx="2" fill="#161b22"><title>2026-04-10: 0</title></rect><rect x="534" y="738" width="10" height="10" rx="2" fill="#161b22"><title>2026-04-11: 0</title></rect><rect x="547" y="660" width="10" height="10" rx="2" fill="#161b22"><title>2026-04-12: 0</title></rect><rect x="547" y="673" width="10" height="10" rx="2" fill="#161b22"><title>2026-04-13: 0</title></rect><rect x="547" y="686" width="10" height="10" rx="2" fill="#161b22"><title>2026-04-14: 0</title></rect><rect x="547" y="699" width="10" height="10" rx="2" fill="#161b22"><title>2026-04-15: 0</title></rect><rect x="547" y="712" width="10" height="10" rx="2" fill="#161b22"><title>2026-04-16: 0</title></rect><rect x="547" y="725" width="10" height="10" rx="2" fill="#0e4429"><title>2026-04-17: 1</title></rect><rect x="547" y="738" width="10" height="10" rx="2" fill="#161b22"><title>2026-04-18: 0</title></rect><rect x="560" y="660" width="10" height="10" rx="2" fill="#161b22"><title>2026-04-19: 0</title></rect><rect x="560" y="673" width="10" height="10" rx="2" fill="#161b22"><title>2026-04-20: 0</title></rect><rect x="560" y="686" width="10" height="10" rx="2" fill="#161b22"><title>2026-04-21: 0</title></rect><rect x="560" y="699" width="10" height="10" rx="2" fill="#161b22"><title>2026-04-22: 0</title></rect><rect x="560" y="712" width="10" height="10" rx="2" fill="#006d32"><title>2026-04-23: 3</title></rect><rect x="560" y="725" width="10" height="10" rx="2" fill="#0e4429"><title>2026-04-24: 1</title></rect><rect x="560" y="738" width="10" height="10" rx="2" fill="#161b22"><title>2026-04-25: 0</title></rect><rect x="573" y="660" width="10" height="10" rx="2" fill="#161b22"><title>2026-04-26: 0</title></rect><rect x="573" y="673" width="10" height="10" rx="2" fill="#161b22"><title>2026-04-27: 0</title></rect><rect x="573" y="686" width="10" height="10" rx="2" fill="#161b22"><title>2026-04-28: 0</title></rect><rect x="573" y="699" width="10" height="10" rx="2" fill="#161b22"><title>2026-04-29: 0</title></rect><rect x="573" y="712" width="10" height="10" rx="2" fill="#161b22"><title>2026-04-30: 0</title></rect><rect x="573" y="725" width="10" height="10" rx="2" fill="#161b22"><title>2026-05-01: 0</title></rect><rect x="573" y="738" width="10" height="10" rx="2" fill="#161b22"><title>2026-05-02: 0</title></rect><rect x="586" y="660" width="10" height="10" rx="2" fill="#161b22"><title>2026-05-03: 0</title></rect><rect x="586" y="673" width="10" height="10" rx="2" fill="#161b22"><title>2026-05-04: 0</title></rect><rect x="586" y="686" width="10" height="10" rx="2" fill="#161b22"><title>2026-05-05: 0</title></rect><rect x="586" y="699" width="10" height="10" rx="2" fill="#161b22"><title>2026-05-06: 0</title></rect><rect x="586" y="712" width="10" height="10" rx="2" fill="#161b22"><title>2026-05-07: 0</title></rect><rect x="586" y="725" width="10" height="10" rx="2" fill="#006d32"><title>2026-05-08: 5</title></rect><rect x="586" y="738" width="10" height="10" rx="2" fill="#161b22"><title>2026-05-09: 0</title></rect><rect x="599" y="660" width="10" height="10" rx="2" fill="#161b22"><title>2026-05-10: 0</title></rect><rect x="599" y="673" width="10" height="10" rx="2" fill="#161b22"><title>2026-05-11: 0</title></rect><rect x="599" y="686" width="10" height="10" rx="2" fill="#161b22"><title>2026-05-12: 0</title></rect><rect x="599" y="699" width="10" height="10" rx="2" fill="#006d32"><title>2026-05-13: 5</title></rect><rect x="599" y="712" width="10" height="10" rx="2" fill="#161b22"><title>2026-05-14: 0</title></rect><rect x="599" y="725" width="10" height="10" rx="2" fill="#0e4429"><title>2026-05-15: 2</title></rect><rect x="599" y="738" width="10" height="10" rx="2" fill="#0e4429"><title>2026-05-16: 1</title></rect><rect x="612" y="660" width="10" height="10" rx="2" fill="#161b22"><title>2026-05-17: 0</title></rect><rect x="612" y="673" width="10" height="10" rx="2" fill="#161b22"><title>2026-05-18: 0</title></rect><rect x="612" y="686" width="10" height="10" rx="2" fill="#006d32"><title>2026-05-19: 5</title></rect><rect x="612" y="699" width="10" height="10" rx="2" fill="#006d32"><title>2026-05-20: 4</title></rect><rect x="612" y="712" width="10" height="10" rx="2" fill="#161b22"><title>2026-05-21: 0</title></rect><rect x="612" y="725" width="10" height="10" rx="2" fill="#161b22"><title>2026-05-22: 0</title></rect><rect x="612" y="738" width="10" height="10" rx="2" fill="#161b22"><title>2026-05-23: 0</title></rect><rect x="625" y="660" width="10" height="10" rx="2" fill="#161b22"><title>2026-05-24: 0</title></rect><rect x="625" y="673" width="10" height="10" rx="2" fill="#0e4429"><title>2026-05-25: 2</title></rect><rect x="625" y="686" width="10" height="10" rx="2" fill="#161b22"><title>2026-05-26: 0</title></rect><rect x="625" y="699" width="10" height="10" rx="2" fill="#006d32"><title>2026-05-27: 3</title></rect><rect x="625" y="712" width="10" height="10" rx="2" fill="#161b22"><title>2026-05-28: 0</title></rect><rect x="625" y="725" width="10" height="10" rx="2" fill="#161b22"><title>2026-05-29: 0</title></rect><rect x="625" y="738" width="10" height="10" rx="2" fill="#161b22"><title>2026-05-30: 0</title></rect><rect x="638" y="660" width="10" height="10" rx="2" fill="#161b22"><title>2026-05-31: 0</title></rect><rect x="638" y="673" width="10" height="10" rx="2" fill="#26a641"><title>2026-06-01: 7</title></rect><rect x="638" y="686" width="10" height="10" rx="2" fill="#161b22"><title>2026-06-02: 0</title></rect><rect x="638" y="699" width="10" height="10" rx="2" fill="#161b22"><title>2026-06-03: 0</title></rect><rect x="638" y="712" width="10" height="10" rx="2" fill="#161b22"><title>2026-06-04: 0</title></rect><rect x="638" y="725" width="10" height="10" rx="2" fill="#161b22"><title>2026-06-05: 0</title></rect><rect x="638" y="738" width="10" height="10" rx="2" fill="#161b22"><title>2026-06-06: 0</title></rect><rect x="651" y="660" width="10" height="10" rx="2" fill="#161b22"><title>2026-06-07: 0</title></rect><rect x="651" y="673" width="10" height="10" rx="2" fill="#161b22"><title>2026-06-08: 0</title></rect><rect x="651" y="686" width="10" height="10" rx="2" fill="#161b22"><title>2026-06-09: 0</title></rect><rect x="651" y="699" width="10" height="10" rx="2" fill="#161b22"><title>2026-06-10: 0</title></rect><rect x="651" y="712" width="10" height="10" rx="2" fill="#006d32"><title>2026-06-11: 3</title></rect><rect x="651" y="725" width="10" height="10" rx="2" fill="#161b22"><title>2026-06-12: 0</title></rect><rect x="651" y="738" width="10" height="10" rx="2" fill="#006d32"><title>2026-06-13: 4</title></rect><rect x="664" y="660" width="10" height="10" rx="2" fill="#161b22"><title>2026-06-14: 0</title></rect><rect x="664" y="673" width="10" height="10" rx="2" fill="#161b22"><title>2026-06-15: 0</title></rect><rect x="664" y="686" width="10" height="10" rx="2" fill="#006d32"><title>2026-06-16: 4</title></rect><rect x="664" y="699" width="10" height="10" rx="2" fill="#26a641"><title>2026-06-17: 7</title></rect><rect x="664" y="712" width="10" height="10" rx="2" fill="#006d32"><title>2026-06-18: 5</title></rect><rect x="664" y="725" width="10" height="10" rx="2" fill="#161b22"><title>2026-06-19: 0</title></rect><rect x="664" y="738" width="10" height="10" rx="2" fill="#161b22"><title>2026-06-20: 0</title></rect><rect x="677" y="660" width="10" height="10" rx="2" fill="#161b22"><title>2026-06-21: 0</title></rect><rect x="677" y="673" width="10" height="10" rx="2" fill="#0e4429"><title>2026-06-22: 2</title></rect><rect x="677" y="686" width="10" height="10" rx="2" fill="#26a641"><title>2026-06-23: 6</title></rect><rect x="677" y="699" width="10" height="10" rx="2" fill="#006d32"><title>2026-06-24: 5</title></rect><rect x="677" y="712" width="10" height="10" rx="2" fill="#26a641"><title>2026-06-25: 7</title></rect><rect x="677" y="725" width="10" height="10" rx="2" fill="#161b22"><title>2026-06-26: 0</title></rect><rect x="677" y="738" width="10" height="10" rx="2" fill="#161b22"><title>2026-06-27: 0</title></rect><rect x="690" y="660" width="10" height="10" rx="2" fill="#161b22"><title>2026-06-28: 0</title></rect><rect x="690" y="673" width="10" height="10" rx="2" fill="#161b22"><title>2026-06-29: 0</title></rect><rect x="690" y="686" width="10" height="10" rx="2" fill="#26a641"><title>2026-06-30: 6</title></rect><rect x="690" y="699" width="10" height="10" rx="2" fill="#26a641"><title>2026-07-01: 7</title></rect><rect x="690" y="712" width="10" height="10" rx="2" fill="#26a641"><title>2026-07-02: 7</title></rect><rect x="690" y="725" width="10" height="10" rx="2" fill="#006d32"><title>2026-07-03: 5</title></rect><rect x="690" y="738" width="10" height="10" rx="2" fill="#0e4429"><title>2026-07-04: 2</title></rect><rect x="703" y="660" width="10" height="10" rx="2" fill="#161b22"><title>2026-07-05: 0</title></rect><rect x="703" y="673" width="10" height="10" rx="2" fill="#26a641"><title>2026-07-06: 6</title></rect><rect x="703" y="686" width="10" height="10" rx="2" fill="#39d353"><title>2026-07-07: 20</title></rect>
    <text x="596" y="765" fill="#6e7681" font-size="10" font-family="'Segoe UI', sans-serif">less</text>
    <rect x="626" y="756" width="10" height="10" rx="2" fill="#161b22"/><rect x="640" y="756" width="10" height="10" rx="2" fill="#0e4429"/><rect x="654" y="756" width="10" height="10" rx="2" fill="#006d32"/><rect x="668" y="756" width="10" height="10" rx="2" fill="#26a641"/><rect x="682" y="756" width="10" height="10" rx="2" fill="#39d353"/>
    <text x="700" y="765" fill="#6e7681" font-size="10" font-family="'Segoe UI', sans-serif">more</text>
  
    
    <text x="40" y="786" fill="#8b949e" font-size="13" font-weight="600" font-family="'Segoe UI', sans-serif" letter-spacing="1">TOP REPOSITORIES</text>
    
        <text x="40" y="814" fill="#c9d1d9" font-size="13" font-family="'Segoe UI', sans-serif">dotfiles</text>
        <rect x="210" y="803" width="600.0" height="12" rx="3" fill="#000080"/>
        <text x="820" y="813" fill="#8b949e" font-size="12" font-family="'Segoe UI', sans-serif">★ 10</text>
      
        <text x="40" y="840" fill="#c9d1d9" font-size="13" font-family="'Segoe UI', sans-serif">nvim</text>
        <rect x="210" y="829" width="420.0" height="12" rx="3" fill="#000080"/>
        <text x="820" y="839" fill="#8b949e" font-size="12" font-family="'Segoe UI', sans-serif">★ 7</text>
      
        <text x="40" y="866" fill="#c9d1d9" font-size="13" font-family="'Segoe UI', sans-serif">notes</text>
        <rect x="210" y="855" width="240.0" height="12" rx="3" fill="#8b949e"/>
        <text x="820" y="865" fill="#8b949e" font-size="12" font-family="'Segoe UI', sans-serif">★ 4</text>
      
        <text x="40" y="892" fill="#c9d1d9" font-size="13" font-family="'Segoe UI', sans-serif">notarkhit.github.io</text>
        <rect x="210" y="881" width="120.0" height="12" rx="3" fill="#f1e05a"/>
        <text x="820" y="891" fill="#8b949e" font-size="12" font-family="'Segoe UI', sans-serif">★ 2</text>
      
        <text x="40" y="918" fill="#c9d1d9" font-size="13" font-family="'Segoe UI', sans-serif">django-password-vault</text>
        <rect x="210" y="907" width="120.0" height="12" rx="3" fill="#e34c26"/>
        <text x="820" y="917" fill="#8b949e" font-size="12" font-family="'Segoe UI', sans-serif">★ 2</text>
      
  

    <text x="860" y="882" fill="#6e7681" font-size="11" text-anchor="end" font-family="'Segoe UI', sans-serif">generated 2026-07-07 08:50 UTC</text>
  </g>
</svg>